<svg width="36" height="36" viewBox="0 0 36 36" fill="none" xmlns="http://www.w3.org/2000/svg">
<path d="M18.0004 23.9999C21.3141 23.9999 24.0004 21.3136 24.0004 17.9999C24.0004 14.6862 21.3141 11.9999 18.0004 11.9999C14.6867 11.9999 12.0004 14.6862 12.0004 17.9999C12.0004 21.3136 14.6867 23.9999 18.0004 23.9999Z" stroke="url(#paint0_linear_4_40)" stroke-width="3.00312" stroke-linecap="round" stroke-linejoin="round"/>
<path d="M24.0004 11.9997V19.4997C24.0004 20.6932 24.4745 21.8378 25.3184 22.6817C26.1623 23.5256 27.3069 23.9997 28.5004 23.9997C29.6939 23.9997 30.8385 23.5256 31.6824 22.6817C32.5263 21.8378 33.0004 20.6932 33.0004 19.4997V17.9997C33.0002 14.6142 31.8547 11.3284 29.7503 8.6765C27.6459 6.02458 24.7062 4.16254 21.4094 3.39315C18.1125 2.62376 14.6523 2.99226 11.5914 4.43875C8.53055 5.88524 6.049 8.32464 4.55029 11.3603C3.05158 14.3959 2.62385 17.8493 3.33665 21.1589C4.04946 24.4684 5.86087 27.4396 8.47635 29.5891C11.0918 31.7387 14.3576 32.9402 17.7425 32.9984C21.1275 33.0566 24.4326 31.9681 27.1204 29.9097" stroke="url(#paint1_linear_4_40)" stroke-width="3.00312" stroke-linecap="round" stroke-linejoin="round"/>
<defs>
<linearGradient id="paint0_linear_4_40" x1="23.1432" y1="13.0908" x2="13.0913" y2="23.2207" gradientUnits="userSpaceOnUse">
<stop stop-color="#353333"/>
<stop offset="1" stop-color="#F1F1ED"/>
</linearGradient>
<linearGradient id="paint1_linear_4_40" x1="30.8575" y1="5.72791" x2="5.72766" y2="31.0526" gradientUnits="userSpaceOnUse">
<stop stop-color="#353333"/>
<stop offset="1" stop-color="#F1F1ED"/>
</linearGradient>
</defs>
</svg>
